<?xml version="1.0" encoding="UTF-8"?>
<svg version="1.1" xmlns="http://www.w3.org/2000/svg" width="499" height="500">
<path d="M0 0 C14.34390939 -0.04693761 28.68780668 -0.08196122 43.03177738 -0.10362434 C49.69349783 -0.11402575 56.35515252 -0.12811791 63.0168457 -0.15087891 C69.4553878 -0.17273778 75.89388023 -0.18459597 82.33245659 -0.18975449 C84.77901426 -0.19342694 87.22556947 -0.20059779 89.67210579 -0.21146011 C117.62167386 -0.33052696 147.00927688 2.44094338 169 22 C169 22.66 169 23.32 169 24 C169.82177734 24.33451172 169.82177734 24.33451172 170.66015625 24.67578125 C177.95864848 28.80631358 184.63170294 36.92034615 189 44 C189 44.66 189 45.32 189 46 C189.66 46 190.32 46 191 46 C206.88009438 76.69626184 212.48704278 105.67134355 202.0078125 139.171875 C201 142 201 142 199.8671875 144.203125 C197.89896396 148.26355467 197.82471245 150.3629475 199.046875 154.8046875 C200.08341919 157.75179808 201.22302722 160.65429405 202.36328125 163.5625 C211.92920381 188.36344143 208.89790059 216.69011041 198.4375 240.6875 C192.74064097 252.7142024 184.6266389 263.77930371 175 273 C174.01 273.33 173.02 273.66 172 274 C172 274.66 172 275.32 172 276 C150.68795154 294.24949032 124.73397561 301.1871144 97.171875 301.12939453 C96.128535 301.13114685 95.08519501 301.13289917 94.01023865 301.13470459 C90.59014178 301.13907693 87.17009732 301.13620318 83.75 301.1328125 C81.36629222 301.13348646 78.9825845 301.13445725 76.59887695 301.13571167 C71.61945945 301.13718203 66.64005994 301.13505385 61.66064453 301.13037109 C55.2634235 301.12464935 48.86624419 301.12797239 42.46902466 301.13394356 C37.55531496 301.13754592 32.64161527 301.13641252 27.72790527 301.13381577 C25.36747228 301.13314688 23.00703839 301.1339736 20.64660645 301.13629532 C17.36203576 301.13881917 14.07753425 301.13498618 10.79296875 301.12939453 C9.81017441 301.13141876 8.82738007 301.13344299 7.81480408 301.13552856 C6.92612137 301.13270874 6.03743866 301.12988892 5.12182617 301.12698364 C4.34538254 301.12660662 3.5689389 301.12622959 2.76896667 301.12584114 C1 301 1 301 0 300 C-0.10214434 298.54110119 -0.13518562 297.07729844 -0.14044189 295.61483765 C-0.14900711 294.19385017 -0.14900711 294.19385017 -0.15774536 292.74415588 C-0.15886322 291.6959819 -0.15998108 290.64780792 -0.16113281 289.56787109 C-0.16609772 288.47015884 -0.17106262 287.37244659 -0.17617798 286.24147034 C-0.19085867 282.58545312 -0.19761533 278.92947944 -0.203125 275.2734375 C-0.20887653 272.73247272 -0.21463426 270.19150796 -0.22039795 267.65054321 C-0.22957999 262.98971804 -0.2358701 258.32890594 -0.2388947 253.66807401 C-0.24335098 246.83952495 -0.2607752 240.01117851 -0.2898953 233.18269098 C-0.31430244 227.25017864 -0.32184845 221.31771545 -0.32357025 215.38515091 C-0.32658031 212.87439504 -0.33455257 210.36363968 -0.34775543 207.85291672 C-0.42640597 191.73041769 0.18852936 177.20513567 5.5625 161.875 C5.97628906 160.67617188 6.39007813 159.47734375 6.81640625 158.2421875 C8 155 8 155 9.31640625 152.484375 C10.33520722 148.7817612 8.9804108 146.80647048 7.375 143.375 C-0.35447347 125.67181315 -0.55520684 107.82343714 -0.390625 88.76953125 C-0.38314637 86.19594263 -0.37746113 83.62234823 -0.37347412 81.04875183 C-0.35988269 75.02141999 -0.32852153 68.99444661 -0.28807616 62.9672572 C-0.24296386 56.0915366 -0.22127353 49.21579974 -0.20129442 42.33996737 C-0.15977343 28.22648599 -0.08967138 14.1132537 0 0 Z M23 23 C22.93029315 34.93567843 22.87708395 46.87130791 22.84456348 58.80714893 C22.82895027 64.35026587 22.80779169 69.89324287 22.77368164 75.4362793 C22.74093287 80.79200797 22.72311435 86.14760257 22.71536827 91.50342369 C22.70985253 93.54022009 22.69908203 95.57700968 22.68280983 97.61374855 C22.42982013 112.57008657 22.42982013 112.57008657 26 127 C26.50813232 126.55897949 27.01626465 126.11795898 27.53979492 125.66357422 C30.29650364 123.27095911 32.95596128 121.02935915 36 119 C36 118.34 36 117.68 36 117 C36.66 117 37.32 117 38 117 C38 116.34 38 115.68 38 115 C39.10988281 114.59007812 39.10988281 114.59007812 40.2421875 114.171875 C42.82598648 113.07394342 44.84192415 111.8646468 47.125 110.25 C55.54638983 104.53349366 64.2255056 99.9167921 74 97 C75.48886719 96.54947266 75.48886719 96.54947266 77.0078125 96.08984375 C106.53431861 88.72534397 135.11916244 95.12188026 160.734375 110.14453125 C163.86437789 112.0624105 163.86437789 112.0624105 167 113 C167 113.66 167 114.32 167 115 C168.65 115.66 170.3 116.32 172 117 C172 117.66 172 118.32 172 119 C172.66 119 173.32 119 174 119 C174 119.66 174 120.32 174 121 C175.78723941 122.58455866 175.78723941 122.58455866 178 124.125 C178.7425 124.66382813 179.485 125.20265625 180.25 125.7578125 C180.8275 126.16773438 181.405 126.57765625 182 127 C188.33780063 106.32669794 185.77349683 85.27770222 175.90625 66.26269531 C174.95920177 64.49665304 173.98054534 62.74766602 173 61 C172.46503906 60.02546875 171.93007813 59.0509375 171.37890625 58.046875 C170.92386719 57.37140625 170.46882812 56.6959375 170 56 C169.34 56 168.68 56 168 56 C167.62294922 55.15501953 167.62294922 55.15501953 167.23828125 54.29296875 C159.13404704 39.28607449 141.29203254 30.17426957 125.6875 25.1875 C118.52521425 23.06581751 111.2381695 22.85370641 103.83007812 22.88647461 C102.51159378 22.88625557 102.51159378 22.88625557 101.16647339 22.8860321 C98.28803967 22.88672359 95.40967229 22.89447991 92.53125 22.90234375 C90.52486201 22.90421065 88.51847357 22.90563327 86.51208496 22.90663147 C81.25141118 22.91043524 75.99076534 22.92024712 70.73010254 22.93133545 C65.35392637 22.94159572 59.97774565 22.94613895 54.6015625 22.95117188 C44.06769611 22.96187143 33.53385038 22.97892198 23 23 Z M76 120 C75.15824219 120.31195313 74.31648438 120.62390625 73.44921875 120.9453125 C64.86049168 124.47573917 55.8285783 129.66735196 49 136 C49 136.66 49 137.32 49 138 C48.01 138.33 47.02 138.66 46 139 C46 139.66 46 140.32 46 141 C45.34 141 44.68 141 44 141 C42.18759253 143.01608167 42.18759253 143.01608167 40.375 145.5 C39.74335938 146.3353125 39.11171875 147.170625 38.4609375 148.03125 C37.73777344 149.00578125 37.73777344 149.00578125 37 150 C43.14622965 158.75372101 50.19337843 165.92047821 59 172 C59.60199219 172.43054688 60.20398438 172.86109375 60.82421875 173.3046875 C66.74704046 177.30290257 73.29398309 179.62876573 80 182 C80.95648438 182.35707031 81.91296875 182.71414063 82.8984375 183.08203125 C101.94839866 188.72024394 124.60882215 185.11584588 141.92236328 175.98632812 C151.68872544 170.40554975 165.67878806 161.84712386 170 151 C167.81122342 140.80267654 153.95934337 131.67569427 145.67041016 126.26489258 C132.87839019 118.36742542 118.67360636 115.60217889 103.8125 115.625 C102.71550781 115.62661133 101.61851562 115.62822266 100.48828125 115.62988281 C91.75710725 115.76115931 84.22435145 116.91453826 76 120 Z M26 174 C25.690625 175.093125 25.38125 176.18625 25.0625 177.3125 C24.41662103 179.55407994 23.7376883 181.7869351 23 184 C22.90825676 186.99774892 22.87406097 189.97184947 22.88647461 192.96948242 C22.88632858 193.88675613 22.88618256 194.80402985 22.8860321 195.74909973 C22.88672943 198.78458003 22.89451344 201.81999916 22.90234375 204.85546875 C22.90420857 206.95868394 22.90563217 209.06189957 22.90663147 211.16511536 C22.91045161 216.70369666 22.92027763 222.2422518 22.93133545 227.78082275 C22.94156036 233.43135219 22.94613141 239.08188585 22.95117188 244.73242188 C22.96190032 255.82162609 22.97897074 266.91081087 23 278 C33.54550541 278.04663439 44.09098571 278.08202557 54.63657379 278.10362434 C59.53493428 278.11399811 64.43322349 278.12803812 69.33154297 278.15087891 C74.07132148 278.17283849 78.81103203 278.18461659 83.55085754 278.18975449 C85.34626839 278.19340924 87.14167612 278.20054399 88.9370575 278.21146011 C106.07211319 278.31136365 124.15691445 278.26188018 139.5 269.8125 C140.24193604 269.4095874 140.98387207 269.0066748 141.74829102 268.59155273 C147.27285486 265.53124391 152.31581801 262.26161663 157 258 C158.20849609 256.92878906 158.20849609 256.92878906 159.44140625 255.8359375 C174.18838708 242.01205012 184.27102236 222.3047486 185.3515625 201.984375 C185.6189421 192.2622323 184.86369289 183.34109348 182 174 C178.59568884 175.44928546 176.65696012 177.27239118 174.1875 180 C157.04477796 197.36571679 133.04220693 205.94464935 109 207 C108.13246094 207.04125 107.26492188 207.0825 106.37109375 207.125 C86.49666584 207.59890588 68.24872488 202.6181258 51 193 C50.01128906 192.45472656 49.02257812 191.90945313 48.00390625 191.34765625 C41.03973822 187.21362907 35.36427065 181.9599477 29.5546875 176.37890625 C27.45982583 173.88641991 27.45982583 173.88641991 26 174 Z " fill="#000000" transform="translate(152,101)"/>
</svg>
